<?xml version="1.0" encoding="utf-8"?>
<!-- Generator: Adobe Illustrator 25.4.1, SVG Export Plug-In . SVG Version: 6.00 Build 0)  -->
<svg version="1.1" id="Calque_1" xmlns="http://www.w3.org/2000/svg" xmlns:xlink="http://www.w3.org/1999/xlink" x="0px" y="0px"
	 viewBox="0 0 428.2 428.2" style="enable-background:new 0 0 428.2 428.2;" xml:space="preserve">
<style type="text/css">
	.st0{clip-path:url(#SVGID_00000092453856613921267250000012861624545273507983_);fill:#FFFFFF;}
	.st1{clip-path:url(#SVGID_00000044136673616768753980000004845157711611709369_);fill:#FFFFFF;}
</style>
<g>
	<g>
		<g>
			<defs>
				<rect id="SVGID_1_" x="71.9" y="44.8" width="286" height="345.3"/>
			</defs>
			<clipPath id="SVGID_00000021841281287496748670000005558081054273362831_">
				<use xlink:href="#SVGID_1_"  style="overflow:visible;"/>
			</clipPath>
			<path style="clip-path:url(#SVGID_00000021841281287496748670000005558081054273362831_);fill:#FFFFFF;" d="M214.9,286.9
				c-54.6,0-99-44.4-99-99s44.4-99,99-99s99.1,44.4,99.1,99S269.5,286.9,214.9,286.9 M316,86.8c-55.8-55.9-146.4-55.9-202.3,0
				C58,142.6,58,233.2,113.8,289l101.1,101.1L316,289C371.9,233.2,371.9,142.6,316,86.8"/>
		</g>
	</g>
	<g>
		<g>
			<defs>
				<rect id="SVGID_00000178166364571244742420000017374137328774550973_" x="71.9" y="44.8" width="286" height="345.3"/>
			</defs>
			<clipPath id="SVGID_00000039813765868618233790000006531900932250299812_">
				<use xlink:href="#SVGID_00000178166364571244742420000017374137328774550973_"  style="overflow:visible;"/>
			</clipPath>
			<path style="clip-path:url(#SVGID_00000039813765868618233790000006531900932250299812_);fill:#FFFFFF;" d="M159.6,188.9
				c0-30.5,24.8-55.3,55.3-55.3s55.3,24.8,55.3,55.3c0,30.6-24.8,55.3-55.3,55.3S159.6,219.4,159.6,188.9"/>
		</g>
	</g>
</g>
</svg>
